<svg xmlns="http://www.w3.org/2000/svg" viewBox="0 0 136.1 62.9">
  <defs>
    <linearGradient id="a">
      <stop offset=".4"/>
      <stop offset="1" stop-color="#c8c8c8"/>
    </linearGradient>
    <linearGradient id="b" x1="63.9" x2="51.4" y1="76.4" y2="5.2" gradientUnits="userSpaceOnUse" href="#a"/>
  </defs>
  <g transform="translate(-21 -10.3)">
    <rect width="70.5" height="44.6" x="22.4" y="18.5" fill="#f0f0f0" stroke="url(#b)" stroke-width="2.8" rx="4.7" ry="5.6"/>
    <text x="59.1" y="56.4" fill="#333" stroke-width="0" font-size="39.8" letter-spacing="-5.8" text-anchor="middle">
      <tspan x="56.2" y="56.4" font-family="DejaVu Sans Mono, monospace" font-weight="400">Alt</tspan></text>
    <path fill="#F1C27D" d="m118.6 73-3-.4a19 19 0 0 1-10-6 16 16 0 0 1-4.3-9.6c0-1.1 0-1.4.3-2.4.4-1.4.4-1.6.3-3.2 0-2 .5-4.7 1.4-6.5q1.5-3 4-5l3.4-2.3a13 13 0 0 1 6.9-1.9c1.3 0 3.5.1 4.5.3q5.6.7 8.7 5l1.2 1.2h.3l.5-1c1-2.2 1.3-2.7 3.3-5.4l1.3-1.8.3-1c.2-.9.2-1 .3-2.8v-2h-.6a14 14 0 0 1-3.2-1l-1.1-.1c-1 0-1.3-.1-2-.6l-.3-.2-.3.3q-.7.9-2.4 1h-.7c-.4-.2-2-1.1-2.2-1.4l-.3-.6v-1q.3-1.9.1-1.7l-.8-.4q-.5-.7-.8-1.6V20q.7-1.3 1.2-3.7c.5-2.2.6-2.7 1-3.5l.3-1q0-.7.6-1l1-.4 3.4.6 7.7 1.4 4.7.8 1.8.6 2.5.8c1.9.5 2.5 1 3 2q.5.6.8 2l3.7 19 1.9 7.5q.3 3-.8 7.7c-.3 1.4-.5 2.2-1.5 5.3a34 34 0 0 0-1.8 7.1q-.2.8-1.4 1.4l-1.3.8c-.8.6-1.3.8-2.3 1q-3.1 1-8.5.4l-2-.2q-.8 0-1.1.2l-2.7.8c-3 .7-4 1-5 1.5a33 33 0 0 1-8.8 2zm25-6.2h-.3zm8.3-7.9v.1zm0-2.8v.1zm-44.6-13.9-.1.1zm32.8-12v.1z"/>
    <path fill="#333" stroke="#333" stroke-width=".3" d="M118.9 73c-3.8-.4-5.8-1-8.4-2.4q-2.1-1-3.9-2.9-1.5-1.5-2.9-3.7a15 15 0 0 1-2.4-7.4q0-.9.5-2.5c.2-.8.2-.8.2-3q0-2.3.7-4.6a14 14 0 0 1 6.7-8 13 13 0 0 1 8.8-2.7c3 0 4.1.2 5.6.5q2.3.6 4.1 1.9c.8.5 2.1 1.8 2.8 2.7q.7 1 1.2 1.3c.4.2.4.1 1-1.1l.6-1.5 2.7-3.9c1.4-1.8 1.3-1.7 1.6-3.1.2-.7.2-1 .2-2.6v-1.8h-.7l-1.2-.3-5-1.5-.3-.1-.4.3q-.6.7-1.9 1c-.8 0-1 0-2.1-.7l-1-.5c-.5-.3-.5-.5-.4-1.5l.1-2-.4-.2q-.5 0-1-1l-.3-1 .2-1c.4-.8.6-1.7 1-3.7l1-3.3.3-.9q0-.9.8-1.1c.8-.4 0-.5 8.7 1.1l7.8 1.4 2 .6 2.6.8q1.8.5 2.4 1.3.9.8 1.2 3l.2 1.5 3 15.5 1.7 6.4c.6 2.3.7 3 .7 4.5a40 40 0 0 1-2.2 11 31 31 0 0 0-1.7 6.4c0 .9-.2 1.2-.7 1.7l-.8.6-1.3.9a9 9 0 0 1-4.2 1.4 37 37 0 0 1-6.4 0c-2.3-.3-2.8-.3-3.8.1l-2.9.8-4.5 1.4c-1.7.7-4.8 1.5-7.1 1.9zm4.1-2.9q1.4-.1 2.6-.5l4-1.5-.4-.2a30 30 0 0 1-4.8-1.4l-.2-.1.4-.1q.3-.1.8 0l4.3.2h3.3l.6-.4q.4-.5 1.5-.3l1.7.3 3.6.5c3 .3 3.5.3 4.8 0l2-.7c2-.5 2.6-.8 3.7-1.5l.6-.6.2-1.7.1-1c.1-.5.2-.7.2-3.1a49 49 0 0 0-.3-7.3v-.8l.1.3q.4.9.6 2l.7 2.5c.1.1.7-1.9 1-3.3q.5-3 .2-4.6l-.2-3.2c0-1.1-.3-2.9-1.2-6.4l-.4-2-2.3-12.8-.2.6-.2.6v-.3l-.4-3-.2-2.9-.2-.3c-.4-.5-.4-.5-4.2-1.8l-2-.7-6.7-1.4-6.6-1.2q.4.4.4.8 0 .1-.2 0l-1.2-.7h-.6q-.8-.2-.8 1.3v.7l-.1-.3-.2-.3q-.2 0-.5 1.5l-1.1 6v.2l.6.2 1.4.6.2-.7a20 20 0 0 1 1.8-5l-.2-.2q-.3-.5 0-.7l.1-.1c.3 0 .9.5 1 .7l-.7 3.5-1.2 3.7.3.4q.6.3 1.4.4h.6l.2-1c.4-1.7 1-3.5 1.6-4.5l.1-.7q0-.6.3-.6.4.1.5.5c.2.5-.5 3.6-1.4 6.1l-.2.8.1.1q.6.5 1.4.6c.6.2.6.1.8-.8l1.2-4.7q0-.9.5-.8l.5.1q.2.4 0 .9l-.1.5-1 5.5c.1.1 1.1.5 1.7.6q1.6.4 3-.2l.4-.2.1-.4.5-1.9q0-.3-.4-.4l-.2.5q-.3 1-.8 1-.5.1-.6-.1v-.4l.2-.9q.1-1.4 1.2-3.2.2-.6.7-.4.3.1 0 .5v.5l-.1.5v.1l.7.6.9.9.3.3h.7l.8-.1q.5-.1.8-1t.9-.8q.6-.1.2 1l-.3 1c-.3 1.2-.5 1.4-1.2 1.7h-.3V28q0 2-.6-.7l-.4-1.8-.7-.3q-.8-.3-.8.5t-.4 1.4q-.2.4-.9.7l-.5.3v4.5l-.5 2.6c-.2.5-.2.6-.7 1.2-1 1.1-3.2 4.2-4 5.6q-1.1 2.1-1.5 4.4a24 24 0 0 0 1.3 10.2q.3.3 0 .6 0 .4-.5 0a19 19 0 0 1-2.3-13.7l-1.3-.6-.7-.6a13 13 0 0 0-9.6-3.8H118q-4.3-.3-6.7 1c-.7.3-2 1.2-2.8 1.8-1 .8-2.2 2-2.8 3q-2 3.4-2 7.5c.1 1.2 0 1.5-.3 2.8q-.3 1 0 2.5.5 5.3 4.8 8.7a23 23 0 0 0 11 4.5zm-5.6-10.4q-3.5-.4-6.3-1.9a16 16 0 0 1-5.6-4.5q-.4-.5.6-.3.4 0 1.2.6a20 20 0 0 0 11.8 3.9c1.3 0 1.6 0 2.3-.2l5.3-1.3c3-.9 3.4-1 3.5-.8 0 .2 0 .3-1.3 1a19 19 0 0 1-11.5 3.5zM137.1 18l.1-1.7.1-.3.4-.1h.8c.9.2 2 .8 2 1h-.3l-.6-.1-1.6-.3q-.4.2-.6 1.4 0 .3-.3 0zm-3.3-1-.3-.3v-1.5q0-.5.2-.6.2-.2.8-.2 1.4 0 2.2.8l.4.3-.1.1h-.3l-.5-.1-1-.3q-.8-.3-1.1.2l-.2.4zm-3.9-2.2c-.2-.5-.2-.6 0-1.2.4-.7.4-.7 1.3-.7.6 0 .6 0 1 .3l1.3 1-.2.1-.6-.1q-1-.4-1.6-.4l-.5.2-.3.8-.1.2zM128.4 26l.6-.5h-.3c-.6-.2-1.7-1-2.1-1.5l-.2-.2v.2q-.3.6-.1 1.3v.3l.5.3 1 .2z"/>
  </g>
</svg>
